name C:\Users\u0101727\Documents\MyRepositories\upper-imu-dc\Results\main_tracking\Case_44\FLX01_linearAccelerations_bodyFrame.mot
datacolumns 4
datarows 47
range 0.51000000 0.97000000
endheader 
time	radius_imu_x	radius_imu_y	radius_imu_z	
          0.51000000	         -1.40630364	          9.84785031	          0.69027215	
          0.52000000	         -1.42920320	          9.85251427	          0.78274590	
          0.53000000	         -1.44705111	          9.85179346	          0.87200544	
          0.54000000	         -1.46656399	          9.85193788	          0.97326250	
          0.55000000	         -1.48759496	          9.85232415	          1.08197851	
          0.56000000	         -1.51199007	          9.85347027	          1.19828974	
          0.57000000	         -1.54000427	          9.85530357	          1.32122191	
          0.58000000	         -1.57150798	          9.85768798	          1.44954829	
          0.59000000	         -1.60656420	          9.86072025	          1.58275335	
          0.60000000	         -1.64486523	          9.86478090	          1.71991376	
          0.61000000	         -1.68654357	          9.86963802	          1.86008456	
          0.62000000	         -1.73108108	          9.87540069	          2.00244787	
          0.63000000	         -1.77737306	          9.88217454	          2.14560097	
          0.64000000	         -1.82497622	          9.88978713	          2.28889419	
          0.65000000	         -1.87315653	          9.89838303	          2.43192713	
          0.66000000	         -1.92078363	          9.90806512	          2.57383141	
          0.67000000	         -1.96687599	          9.91887730	          2.71370624	
          0.68000000	         -2.01073246	          9.93051811	          2.85031677	
          0.69000000	         -2.05171134	          9.94268102	          2.98304348	
          0.70000000	         -2.08905147	          9.95534582	          3.11161828	
          0.71000000	         -2.12219330	          9.96832089	          3.23569236	
          0.72000000	         -2.15025313	          9.98156312	          3.35494663	
          0.73000000	         -2.17302846	          9.99496890	          3.46960105	
          0.74000000	         -2.19070493	         10.00804630	          3.57958185	
          0.75000000	         -2.20338753	         10.02043469	          3.68515705	
          0.76000000	         -2.21104148	         10.03199081	          3.78672750	
          0.77000000	         -2.21390762	         10.04251589	          3.88488748	
          0.78000000	         -2.21230295	         10.05185271	          3.98027438	
          0.79000000	         -2.20716757	         10.05959898	          4.07379116	
          0.80000000	         -2.19917287	         10.06541277	          4.16617008	
          0.81000000	         -2.18899805	         10.06916053	          4.25861560	
          0.82000000	         -2.17697385	         10.07070660	          4.35164208	
          0.83000000	         -2.16342401	         10.07007647	          4.44602488	
          0.84000000	         -2.14846958	         10.06707032	          4.54149924	
          0.85000000	         -2.13234484	         10.06134913	          4.63777301	
          0.86000000	         -2.11466527	         10.05278895	          4.73427478	
          0.87000000	         -2.09497714	         10.04133186	          4.83058285	
          0.88000000	         -2.07293816	         10.02680117	          4.92627289	
          0.89000000	         -2.04834299	         10.00891115	          5.02106160	
          0.90000000	         -2.02101471	          9.98741459	          5.11498389	
          0.91000000	         -1.99077239	          9.96214613	          5.20836754	
          0.92000000	         -1.95749676	          9.93298111	          5.30178565	
          0.93000000	         -1.92117244	          9.89982614	          5.39607094	
          0.94000000	         -1.88185465	          9.86264071	          5.49227042	
          0.95000000	         -1.83957064	          9.82145010	          5.59139133	
          0.96000000	         -1.79421362	          9.77631732	          5.69397850	
          0.97000000	         -1.74548219	          9.72728388	          5.79973861	
